<svg width="310" height="183" viewBox="0 0 310 183" fill="none" xmlns="http://www.w3.org/2000/svg">
<rect x="-141" y="62.9851" width="40" height="296" transform="rotate(-53.0945 -141 62.9851)" fill="#5652FF"/>
<path d="M-71 58.9851L-46.9801 27L189.709 204.747L165.69 236.732L-71 58.9851Z" fill="#5652FF"/>
<rect x="17" y="62.9851" width="40" height="296" transform="rotate(-53.0945 17 62.9851)" fill="#918FFF"/>
<rect x="112" y="68.9851" width="40" height="296" transform="rotate(-53.0945 112 68.9851)" fill="#BCBBFF"/>
<path d="M-49 42C-35.5 65 -93 230.5 167 85.5C200.978 66.5508 195.948 123.789 239 141.5C318 174 327.836 33.1849 330 19L-39.5 0.5C-47.1667 6.66667 -59.8 23.6 -49 42Z" fill="white"/>
</svg>
